<svg width="422" height="309" viewBox="0 0 422 309" fill="none" xmlns="http://www.w3.org/2000/svg">
<g clip-path="url(#clip0_42_8)">
<path d="M411.003 299.895L406.821 301.233L399.672 285.739L405.844 283.765L411.003 299.895Z" fill="#FFB6B6"/>
<path d="M413.366 303.607L399.881 307.92L399.827 307.749C399.382 306.358 399.508 304.846 400.177 303.547C400.847 302.248 402.005 301.268 403.396 300.822L403.397 300.822L405.262 298.166L410.455 298.565L411.632 298.188L413.366 303.607Z" fill="#2F2E41"/>
<path d="M371.353 304.066H366.962L364.874 287.131H371.353L371.353 304.066Z" fill="#FFB6B6"/>
<path d="M372.473 308.322L358.315 308.321V308.142C358.315 306.681 358.896 305.279 359.929 304.246C360.963 303.213 362.364 302.632 363.826 302.632H363.826L366.412 300.67L371.237 302.632L372.473 302.632L372.473 308.322Z" fill="#2F2E41"/>
<path d="M350.382 129.059C350.053 129.47 349.817 129.948 349.693 130.459C349.568 130.971 349.557 131.503 349.661 132.02C349.764 132.536 349.98 133.023 350.292 133.447C350.604 133.871 351.005 134.221 351.467 134.473L349.361 147.097L355.44 144.399L356.508 132.825C356.881 132.021 356.944 131.108 356.688 130.259C356.432 129.41 355.873 128.685 355.118 128.221C354.363 127.757 353.464 127.586 352.591 127.74C351.718 127.894 350.932 128.364 350.382 129.059Z" fill="#FFB6B6"/>
<path d="M405.805 233.777C405.805 233.777 406.829 220.441 403.199 217.964C399.57 215.488 369.645 214.241 369.645 214.241L367.787 216.684C367.787 216.684 367.619 217.826 364.801 227.122L363.653 279.015C363.539 284.074 362.657 290.43 364.77 291.73L365.797 296.865H371.446L374.567 288.231C375.912 286.059 376.485 283.497 376.193 280.959L377.897 273.337C377.778 273.217 377.694 273.066 377.654 272.902C377.462 271.766 377.717 270.6 378.366 269.649C378.517 269.426 378.683 269.215 378.863 269.016L385.106 241.09L393.528 273.757L398.725 285.36C398.214 286.576 398.554 287.678 399.485 288.701C399.139 289.652 400.635 290.32 401.277 291.55L403.285 295.324L408.934 292.243L409.447 289.162C409.789 288.248 408.87 287.643 408.192 285.745C409.456 284.402 409.388 283.094 408.169 281.816L406.033 272.609L406.008 268.387L405.982 263.876L405.805 233.777Z" fill="#2F2E41"/>
<path d="M382.186 154.493C387.606 154.493 391.999 150.1 391.999 144.681C391.999 139.261 387.606 134.868 382.186 134.868C376.766 134.868 372.373 139.261 372.373 144.681C372.373 150.1 376.766 154.493 382.186 154.493Z" fill="#FFB6B6"/>
<path d="M392.058 146.217L391.896 145.893C391.646 145.392 389.571 141.225 389.31 140.154L386.699 140.461L379.898 140.462L380.843 139.045L378.345 139.37C377.432 139.481 376.559 139.81 375.8 140.33C375.334 140.639 374.94 141.045 374.645 141.52C373.752 143.049 372.389 145.548 372.375 145.573L372.245 145.812L371.112 143.906C371.097 143.833 369.693 136.509 374.392 134.026C375.062 132.717 376.098 131.632 377.375 130.904C378.652 130.175 380.113 129.834 381.58 129.923C382.117 129.312 382.873 128.936 383.684 128.877C384.799 128.819 385.956 129.405 387.118 130.625C388.662 132.246 390.776 134.465 392.054 136.929L392.407 137.432C392.908 138.153 393.156 139.019 393.112 139.895C393.384 141.293 393.287 142.738 392.832 144.088L392.058 146.217Z" fill="#2F2E41"/>
<path d="M405.759 163.354L395.093 160.368L389.663 156.34L378.997 158.041L378.95 158.102C377.083 160.528 374.204 162.924 371.143 163.02C370.356 163.045 369.574 163.157 368.811 163.354L367.787 182.077V198.817C367.947 198.871 368.09 198.965 368.203 199.09C368.316 199.216 368.395 199.368 368.432 199.532C368.732 201.239 368.704 202.987 368.348 204.683C368.222 205.274 368.034 205.851 367.787 206.403C368.085 207.019 368.24 207.695 368.24 208.379C368.24 209.064 368.085 209.739 367.787 210.355C366.875 211.225 366.993 212.172 367.787 213.17V216.684C385.1 231.129 403.155 218.761 403.155 218.761L402.576 191.266L405.759 163.354Z" fill="#3F3D56"/>
<path d="M371.204 165.926L368.811 163.354L355.627 161.861L356.865 141.613L349.677 136.485L346.422 154.056C345.302 155.024 345.095 155.978 345.892 156.916C344.996 158.708 344.765 160.166 345.07 161.353L344.396 164.991L368.79 182.077L371.204 165.926Z" fill="#3F3D56"/>
<path d="M403.813 232.134C403.529 231.691 403.346 231.19 403.276 230.668C403.207 230.147 403.253 229.616 403.41 229.113C403.568 228.611 403.834 228.15 404.19 227.761C404.545 227.373 404.982 227.067 405.468 226.866L404.717 214.09L410.474 217.419L410.305 229.041C410.589 229.88 410.556 230.795 410.211 231.611C409.866 232.428 409.233 233.09 408.433 233.471C407.633 233.852 406.721 233.927 405.869 233.68C405.017 233.434 404.286 232.884 403.813 232.134Z" fill="#FFB6B6"/>
<path d="M401.752 166.549L405.759 163.354C405.759 163.354 409.857 165.614 411.104 169.667C412.35 173.719 414.532 196.785 414.532 196.785L414.869 205.374C415.3 206.736 415.187 207.951 414.16 208.919C415.704 210.517 415.473 211.847 413.365 212.895L411.177 226.398L404.312 224.972L405.181 198.344L399.57 181.2L401.752 166.549Z" fill="#3F3D56"/>
<path d="M127.518 60.7711H126.113V22.2785C126.113 19.3528 125.536 16.4558 124.417 13.7529C123.297 11.0499 121.656 8.59398 119.587 6.52523C117.518 4.45648 115.062 2.81545 112.359 1.69585C109.656 0.576253 106.759 2.02313e-06 103.834 0H22.2792C16.3704 -1.22573e-05 10.7036 2.34717 6.52544 6.52518C2.34728 10.7032 1.36197e-05 16.3698 0 22.2784V233.452C-2.72395e-06 239.361 2.34725 245.027 6.5254 249.205C10.7035 253.383 16.3703 255.73 22.2791 255.73H103.833C106.759 255.73 109.656 255.154 112.359 254.035C115.062 252.915 117.518 251.274 119.587 249.205C121.656 247.136 123.297 244.681 124.417 241.978C125.536 239.275 126.113 236.378 126.113 233.452V88.1708H127.518V60.7711Z" fill="#3F3D56"/>
<path d="M104.732 5.7961H94.0869C94.5764 6.9963 94.7633 8.29848 94.631 9.58791C94.4988 10.8774 94.0514 12.1145 93.3284 13.1903C92.6053 14.2661 91.6288 15.1476 90.4849 15.7572C89.3409 16.3667 88.0645 16.6856 86.7683 16.6857H40.0469C38.7506 16.6856 37.4743 16.3667 36.3303 15.7572C35.1863 15.1477 34.2098 14.2661 33.4868 13.1903C32.7638 12.1145 32.3164 10.8773 32.1841 9.5879C32.0519 8.29845 32.2388 6.99627 32.7283 5.79607H22.7854C18.3727 5.79606 14.1408 7.54891 11.0206 10.669C7.90044 13.7891 6.14753 18.0209 6.14752 22.4334V233.297C6.14752 235.482 6.57787 237.645 7.414 239.664C8.25012 241.682 9.47566 243.516 11.0206 245.061C12.5656 246.606 14.3997 247.832 16.4183 248.668C18.4369 249.504 20.6004 249.934 22.7853 249.934H104.732C106.917 249.934 109.081 249.504 111.099 248.668C113.118 247.832 114.952 246.606 116.497 245.061C118.042 243.516 119.268 241.682 120.104 239.664C120.94 237.645 121.37 235.482 121.37 233.297V22.4334C121.37 20.2485 120.94 18.0851 120.104 16.0666C119.268 14.048 118.042 12.214 116.497 10.669C114.952 9.12412 113.118 7.89863 111.099 7.06253C109.081 6.22643 106.917 5.79609 104.732 5.7961Z" fill="white"/>
<path d="M103.944 84.7724C103.95 89.5623 103.096 94.3145 101.422 98.8025C100.662 100.858 99.7301 102.846 98.6353 104.745C95.116 110.886 90.0375 115.988 83.9134 119.537C77.7893 123.086 70.8368 124.955 63.7588 124.955C56.6807 124.955 49.7282 123.086 43.6041 119.537C37.48 115.988 32.4016 110.886 28.8822 104.745C28.5259 104.127 28.1881 103.5 27.8687 102.864C25.137 97.4458 23.6679 91.479 23.5716 85.4117C23.4753 79.3443 24.7542 73.3339 27.3125 67.8314C29.8708 62.3289 33.642 57.4772 38.3431 53.6402C43.0443 49.8032 48.5533 47.0805 54.457 45.6766C60.3606 44.2726 66.5056 44.2237 72.4308 45.5336C78.356 46.8435 83.9077 49.4781 88.6693 53.2398C93.4309 57.0016 97.2788 61.7927 99.9243 67.2539C102.57 72.715 103.944 78.7042 103.944 84.7724Z" fill="#F1F1F1"/>
<path d="M65.848 91.5563C70.091 91.5563 73.5307 88.1168 73.5307 83.8739C73.5307 79.631 70.091 76.1915 65.848 76.1915C61.605 76.1915 58.1653 79.631 58.1653 83.8739C58.1653 88.1168 61.605 91.5563 65.848 91.5563Z" fill="#FF6582"/>
<path d="M27.8688 102.864C31.2537 99.2064 35.7788 93.3987 40.0228 97.5951C42.1527 99.5745 45.4862 104.48 48.6771 101.273L73.5949 76.3559C74.064 75.8928 74.6209 75.5281 75.233 75.2833C75.845 75.0384 76.4998 74.9184 77.1589 74.9302C77.818 74.942 78.4681 75.0854 79.0709 75.352C79.6738 75.6186 80.2173 76.003 80.6696 76.4826L101.423 98.8026C100.662 100.858 99.7301 102.846 98.6354 104.745H28.8823L27.8688 102.864Z" fill="#6C63FF"/>
<path d="M82.6142 166.374C82.3393 166.375 82.0758 166.485 81.8816 166.679C81.6874 166.874 81.5783 167.137 81.5783 167.412C81.5783 167.687 81.6874 167.951 81.8816 168.146C82.0758 168.34 82.3393 168.45 82.6142 168.451H93.5084C93.7837 168.451 94.0478 168.341 94.2425 168.146C94.4372 167.952 94.5465 167.688 94.5465 167.412C94.5465 167.137 94.4372 166.873 94.2425 166.678C94.0478 166.484 93.7837 166.374 93.5084 166.374H82.6142Z" fill="#6C63FF"/>
<path d="M33.5329 151.126C33.2576 151.126 32.9935 151.236 32.7988 151.43C32.6041 151.625 32.4947 151.889 32.4947 152.164C32.4947 152.44 32.6041 152.704 32.7988 152.898C32.9935 153.093 33.2576 153.202 33.5329 153.202H93.9849C94.2602 153.202 94.5243 153.093 94.719 152.898C94.9137 152.704 95.023 152.44 95.023 152.164C95.023 151.889 94.9137 151.625 94.719 151.43C94.5243 151.236 94.2602 151.126 93.9849 151.126H33.5329Z" fill="#E5E5E5"/>
<path d="M33.5329 158.75C33.2579 158.751 32.9945 158.86 32.8003 159.055C32.6061 159.25 32.497 159.513 32.497 159.788C32.497 160.063 32.6061 160.327 32.8003 160.522C32.9945 160.716 33.2579 160.826 33.5329 160.826H93.9849C94.1214 160.827 94.2566 160.8 94.3829 160.748C94.5091 160.696 94.6238 160.62 94.7205 160.523C94.8171 160.427 94.8938 160.312 94.9461 160.186C94.9984 160.06 95.0254 159.925 95.0254 159.788C95.0254 159.652 94.9984 159.517 94.9461 159.391C94.8938 159.264 94.8171 159.15 94.7205 159.053C94.6238 158.957 94.5091 158.881 94.3829 158.829C94.2566 158.777 94.1214 158.75 93.9849 158.75H33.5329Z" fill="#E5E5E5"/>
<path d="M82.6142 215.295C82.3389 215.295 82.0748 215.405 81.8801 215.599C81.6854 215.794 81.576 216.058 81.576 216.333C81.576 216.609 81.6854 216.873 81.8801 217.067C82.0748 217.262 82.3389 217.372 82.6142 217.372H93.5084C93.7837 217.372 94.0478 217.262 94.2425 217.067C94.4372 216.873 94.5465 216.609 94.5465 216.333C94.5465 216.058 94.4372 215.794 94.2425 215.599C94.0478 215.405 93.7837 215.295 93.5084 215.295H82.6142Z" fill="#6C63FF"/>
<path d="M33.5329 200.047C33.2576 200.047 32.9935 200.157 32.7988 200.351C32.6041 200.546 32.4947 200.81 32.4947 201.085C32.4947 201.361 32.6041 201.625 32.7988 201.819C32.9935 202.014 33.2576 202.123 33.5329 202.123H93.9849C94.1214 202.124 94.2567 202.097 94.3829 202.045C94.5091 201.993 94.6238 201.917 94.7205 201.82C94.8171 201.724 94.8938 201.609 94.9461 201.483C94.9984 201.357 95.0254 201.222 95.0254 201.085C95.0254 200.949 94.9984 200.814 94.9461 200.687C94.8938 200.561 94.8171 200.447 94.7205 200.35C94.6238 200.254 94.5091 200.178 94.3829 200.126C94.2567 200.073 94.1214 200.047 93.9849 200.047H33.5329Z" fill="#E5E5E5"/>
<path d="M33.5329 207.671C33.2576 207.671 32.9935 207.781 32.7988 207.975C32.6041 208.17 32.4947 208.434 32.4947 208.709C32.4947 208.985 32.6041 209.249 32.7988 209.443C32.9935 209.638 33.2576 209.747 33.5329 209.747H93.9849C94.2602 209.747 94.5243 209.638 94.719 209.443C94.9137 209.249 95.023 208.985 95.023 208.709C95.023 208.434 94.9137 208.17 94.719 207.975C94.5243 207.781 94.2602 207.671 93.9849 207.671H33.5329Z" fill="#E5E5E5"/>
<path d="M344.621 117.024L336.326 113.273C336.285 114.381 335.972 115.461 335.414 116.419C334.857 117.378 334.073 118.184 333.13 118.767C332.188 119.351 331.116 119.694 330.01 119.766C328.904 119.838 327.797 119.636 326.787 119.18L290.382 102.719C289.372 102.262 288.49 101.564 287.813 100.686C287.137 99.8082 286.686 98.7773 286.502 97.6843C286.318 96.5912 286.405 95.4697 286.756 94.4183C287.108 93.367 287.712 92.4182 288.516 91.6555L280.769 88.1524C277.331 86.5978 273.416 86.4726 269.885 87.8045C266.354 89.1363 263.497 91.8161 261.943 95.2543L187.647 259.558C186.878 261.26 186.451 263.097 186.391 264.965C186.331 266.832 186.64 268.693 187.299 270.441C187.959 272.189 188.956 273.79 190.235 275.153C191.513 276.516 193.047 277.613 194.75 278.383H194.75L258.602 307.254C262.04 308.809 265.955 308.934 269.486 307.602C273.017 306.271 275.873 303.591 277.428 300.153L351.723 135.849C352.493 134.147 352.92 132.309 352.98 130.442C353.04 128.575 352.731 126.714 352.071 124.966C351.412 123.218 350.415 121.616 349.136 120.254C347.858 118.891 346.324 117.794 344.621 117.024Z" fill="#E4E4E4"/>
<path d="M270.723 195.256C265.132 192.717 260.307 188.751 256.735 183.756C253.162 178.762 250.967 172.915 250.37 166.803C250.31 166.197 250.266 165.574 250.241 164.953C249.997 159.503 251.051 154.073 253.313 149.11C255.418 144.461 258.517 140.331 262.392 137.011C266.266 133.69 270.822 131.261 275.739 129.893C280.655 128.525 285.811 128.253 290.844 129.095C295.877 129.938 300.663 131.874 304.866 134.768C309.069 137.661 312.586 141.442 315.169 145.843C317.751 150.244 319.336 155.158 319.813 160.238C320.289 165.319 319.645 170.442 317.925 175.246C316.206 180.05 313.453 184.419 309.862 188.043C308.525 189.397 307.076 190.636 305.532 191.746C300.548 195.335 294.708 197.548 288.597 198.164C282.487 198.78 276.323 197.777 270.723 195.256ZM299.04 132.634C290.858 128.946 281.547 128.654 273.15 131.822C264.753 134.99 257.956 141.36 254.249 149.533C252.053 154.35 251.031 159.62 251.267 164.909C251.292 165.512 251.334 166.116 251.392 166.704C251.962 172.639 254.088 178.318 257.557 183.167C261.026 188.017 265.714 191.864 271.147 194.321C276.58 196.778 282.565 197.756 288.497 197.158C294.429 196.559 300.099 194.405 304.931 190.913C306.43 189.836 307.835 188.634 309.132 187.321C312.977 183.44 315.826 178.686 317.436 173.465C319.046 168.245 319.37 162.712 318.378 157.34C317.387 151.967 315.11 146.914 311.743 142.612C308.375 138.31 304.017 134.887 299.04 132.634H299.04Z" fill="white"/>
<path d="M274.161 130.881L273.202 131.249L297.606 194.954L298.565 194.587L274.161 130.881Z" fill="white"/>
<path d="M316.195 150.752L252.486 175.15L252.854 176.109L316.563 151.711L316.195 150.752Z" fill="white"/>
<path d="M284.6 245.03L224.334 217.781C223.888 217.578 223.539 217.207 223.366 216.748C223.193 216.289 223.209 215.78 223.411 215.333L229.08 202.795C229.283 202.349 229.654 202.001 230.113 201.827C230.572 201.654 231.081 201.67 231.528 201.872L291.794 229.121C292.241 229.324 292.589 229.696 292.762 230.154C292.935 230.613 292.919 231.122 292.717 231.569L287.048 244.107C286.845 244.553 286.474 244.902 286.015 245.075C285.556 245.248 285.047 245.232 284.6 245.03ZM231.105 202.808C230.906 202.718 230.68 202.711 230.475 202.788C230.271 202.865 230.106 203.02 230.016 203.218L224.347 215.756C224.257 215.955 224.25 216.181 224.327 216.385C224.404 216.589 224.559 216.755 224.757 216.845L285.023 244.094C285.222 244.184 285.449 244.191 285.653 244.114C285.857 244.037 286.022 243.882 286.112 243.684L291.781 231.146C291.871 230.947 291.878 230.721 291.801 230.517C291.724 230.313 291.569 230.147 291.371 230.057L231.105 202.808Z" fill="white"/>
<path d="M270.001 277.316L209.735 250.066C209.288 249.864 208.94 249.492 208.767 249.033C208.594 248.574 208.61 248.065 208.812 247.618L214.481 235.081C214.684 234.634 215.055 234.286 215.514 234.113C215.973 233.94 216.482 233.956 216.929 234.157L277.195 261.407C277.642 261.61 277.99 261.981 278.163 262.44C278.336 262.899 278.32 263.408 278.118 263.855L272.449 276.392C272.246 276.839 271.875 277.187 271.416 277.36C270.957 277.533 270.448 277.517 270.001 277.316ZM216.506 235.093C216.307 235.004 216.08 234.996 215.876 235.073C215.672 235.15 215.507 235.305 215.417 235.504L209.748 248.041C209.658 248.24 209.651 248.467 209.728 248.671C209.805 248.875 209.96 249.04 210.158 249.13L270.424 276.38C270.623 276.47 270.85 276.477 271.054 276.4C271.258 276.323 271.423 276.168 271.513 275.969L277.182 263.432C277.272 263.233 277.279 263.007 277.202 262.802C277.125 262.598 276.97 262.433 276.772 262.343L216.506 235.093Z" fill="white"/>
<path d="M246.709 195.624C245.47 189.451 242.792 183.657 238.895 178.712C234.933 173.691 230.093 169.429 224.612 166.133C218.947 162.692 212.776 160.162 206.327 158.636C198.311 156.71 190.032 156.082 181.804 156.162C173.518 156.241 165.258 157.018 157.022 157.883C155.976 157.992 154.929 158.104 153.882 158.216C152.907 158.32 152.896 159.862 153.882 159.756C161.996 158.89 170.122 158.039 178.283 157.777C186.377 157.517 194.531 157.835 202.496 159.38C209.13 160.611 215.53 162.873 221.464 166.085C226.991 169.08 231.948 173.022 236.11 177.733C240.186 182.338 243.134 187.829 244.72 193.77C244.912 194.519 245.078 195.274 245.223 196.034C245.409 197.007 246.895 196.595 246.709 195.624Z" fill="#2F2E41"/>
<path d="M159.385 147.191L147.08 160.28C146.998 160.364 146.936 160.465 146.898 160.576C146.861 160.688 146.85 160.806 146.865 160.922C146.88 161.039 146.921 161.15 146.985 161.248C147.049 161.347 147.135 161.429 147.235 161.489L158.337 166.796C159.227 167.221 160.01 165.893 159.115 165.466L148.013 160.159L148.169 161.369L160.474 148.281C161.153 147.559 160.066 146.467 159.385 147.191Z" fill="#2F2E41"/>
<path d="M421.389 309H186.553C186.391 309 186.235 308.936 186.121 308.821C186.006 308.706 185.942 308.551 185.942 308.389C185.942 308.226 186.006 308.071 186.121 307.956C186.235 307.841 186.391 307.777 186.553 307.777H421.389C421.551 307.777 421.706 307.841 421.821 307.956C421.936 308.071 422 308.226 422 308.389C422 308.551 421.936 308.706 421.821 308.821C421.706 308.936 421.551 309 421.389 309Z" fill="#CACACA"/>
</g>
<defs>
<clipPath id="clip0_42_8">
<rect width="422" height="309" fill="white"/>
</clipPath>
</defs>
</svg>
