<svg width="177" height="21" viewBox="0 0 177 21" fill="none" xmlns="http://www.w3.org/2000/svg">
<path d="M0.52 21V-1.43051e-06H13.99V2.97H3.7V9.39H12.34V12.18H3.7V21H0.52ZM18.8383 21V18.18H23.3983V2.82H18.8983V-1.43051e-06H31.0783V2.82H26.5783V18.18H31.1383V21H18.8383ZM35.5066 21V-1.43051e-06H38.6266L47.4166 15.39V-1.43051e-06H50.4466V21H47.3266L38.5366 5.61V21H35.5066ZM53.6748 21V-1.43051e-06H58.7148C62.0948 -1.43051e-06 64.6048 0.939999 66.2448 2.82C67.8848 4.68 68.7048 7.24 68.7048 10.5C68.7048 13.76 67.8848 16.33 66.2448 18.21C64.6048 20.07 62.0948 21 58.7148 21H53.6748ZM56.8548 18.06H58.5948C61.0348 18.06 62.7948 17.38 63.8748 16.02C64.9548 14.64 65.4948 12.8 65.4948 10.5C65.4948 8.2 64.9548 6.37 63.8748 5.01C62.7948 3.63 61.0348 2.94 58.5948 2.94H56.8548V18.06ZM71.2431 21V-1.43051e-06H74.6031L78.9531 9.48L83.3031 -1.43051e-06H86.6631V21H83.6331V6.06L80.2131 13.56H77.6931L74.2731 6.09V21H71.2431ZM95.3514 21V13.02L88.4214 -1.43051e-06H92.0514L96.9414 9.66L101.831 -1.43051e-06H105.461L98.5314 13.02V21H95.3514ZM108.18 21V-1.43051e-06H115.05C116.69 -1.43051e-06 118.04 0.279999 119.1 0.839998C120.18 1.4 120.98 2.16 121.5 3.12C122.04 4.06 122.31 5.13 122.31 6.33C122.31 7.69 121.96 8.9 121.26 9.96C120.58 11 119.53 11.76 118.11 12.24L122.52 21H118.83L114.81 12.69H111.36V21H108.18ZM111.36 9.81H114.87C116.31 9.81 117.36 9.49 118.02 8.85C118.7 8.21 119.04 7.37 119.04 6.33C119.04 5.27 118.71 4.43 118.05 3.81C117.39 3.17 116.32 2.85 114.84 2.85H111.36V9.81ZM124.758 21L131.028 -1.43051e-06H134.808L141.078 21H137.628L136.218 15.96H129.618L128.208 21H124.758ZM132.828 4.5L130.338 13.41H135.498L133.008 4.5H132.828ZM143.436 21V-1.43051e-06H146.556L155.346 15.39V-1.43051e-06H158.376V21H155.256L146.466 5.61V21H143.436ZM162.175 21V-1.43051e-06H165.355V9.6L172.795 -1.43051e-06H176.725L168.505 10.41V10.59L176.905 21H172.885L165.355 11.58V21H162.175Z" fill="black"/>
</svg>
